ModelForces
version=1
nRows=4
nColumns=155
inDegrees=no

This file contains the forces exerted on a model during a simulation.

A force is a generalized force, meaning that it can be either a force (N) or a torque (Nm).

Units are S.I. units (second, meters, Newtons, ...)
Angles are in degrees.

endheader
time	glut_med1_r	glut_med2_r	glut_med3_r	glut_min1_r	glut_min2_r	glut_min3_r	semimem_r	semiten_r	bifemlh_r	bifemsh_r	sar_r	add_long_r	add_brev_r	add_mag1_r	add_mag2_r	add_mag3_r	tfl_r	pect_r	grac_r	glut_max1_r	glut_max2_r	glut_max3_r	iliacus_r	psoas_r	quad_fem_r	gem_r	peri_r	rect_fem_r	vas_med_r	vas_int_r	vas_lat_r	med_gas_r	lat_gas_r	soleus_r	tib_post_r	flex_dig_r	flex_hal_r	tib_ant_r	per_brev_r	per_long_r	per_tert_r	ext_dig_r	ext_hal_r	glut_med1_l	glut_med2_l	glut_med3_l	glut_min1_l	glut_min2_l	glut_min3_l	semimem_l	semiten_l	bifemlh_l	bifemsh_l	sar_l	add_long_l	add_brev_l	add_mag1_l	add_mag2_l	add_mag3_l	tfl_l	pect_l	grac_l	glut_max1_l	glut_max2_l	glut_max3_l	iliacus_l	psoas_l	quad_fem_l	gem_l	peri_l	rect_fem_l	vas_med_l	vas_int_l	vas_lat_l	med_gas_l	lat_gas_l	soleus_l	tib_post_l	flex_dig_l	flex_hal_l	tib_ant_l	per_brev_l	per_long_l	per_tert_l	ext_dig_l	ext_hal_l	ercspn_r	ercspn_l	intobl_r	intobl_l	extobl_r	extobl_l	femur_lat_meniscii_r.femur_lat_r.force.X	femur_lat_meniscii_r.femur_lat_r.force.Y	femur_lat_meniscii_r.femur_lat_r.force.Z	femur_lat_meniscii_r.femur_lat_r.torque.X	femur_lat_meniscii_r.femur_lat_r.torque.Y	femur_lat_meniscii_r.femur_lat_r.torque.Z	femur_lat_meniscii_r.meniscus_lat_r.force.X	femur_lat_meniscii_r.meniscus_lat_r.force.Y	femur_lat_meniscii_r.meniscus_lat_r.force.Z	femur_lat_meniscii_r.meniscus_lat_r.torque.X	femur_lat_meniscii_r.meniscus_lat_r.torque.Y	femur_lat_meniscii_r.meniscus_lat_r.torque.Z	femur_med_meniscii_r.femur_med_r.force.X	femur_med_meniscii_r.femur_med_r.force.Y	femur_med_meniscii_r.femur_med_r.force.Z	femur_med_meniscii_r.femur_med_r.torque.X	femur_med_meniscii_r.femur_med_r.torque.Y	femur_med_meniscii_r.femur_med_r.torque.Z	femur_med_meniscii_r.meniscus_med_r.force.X	femur_med_meniscii_r.meniscus_med_r.force.Y	femur_med_meniscii_r.meniscus_med_r.force.Z	femur_med_meniscii_r.meniscus_med_r.torque.X	femur_med_meniscii_r.meniscus_med_r.torque.Y	femur_med_meniscii_r.meniscus_med_r.torque.Z	femur_med_tibia_r.tibia_upper_r.force.X	femur_med_tibia_r.tibia_upper_r.force.Y	femur_med_tibia_r.tibia_upper_r.force.Z	femur_med_tibia_r.tibia_upper_r.torque.X	femur_med_tibia_r.tibia_upper_r.torque.Y	femur_med_tibia_r.tibia_upper_r.torque.Z	femur_med_tibia_r.femur_med_r.force.X	femur_med_tibia_r.femur_med_r.force.Y	femur_med_tibia_r.femur_med_r.force.Z	femur_med_tibia_r.femur_med_r.torque.X	femur_med_tibia_r.femur_med_r.torque.Y	femur_med_tibia_r.femur_med_r.torque.Z	femur_lat_tibia_r.tibia_upper_r.force.X	femur_lat_tibia_r.tibia_upper_r.force.Y	femur_lat_tibia_r.tibia_upper_r.force.Z	femur_lat_tibia_r.tibia_upper_r.torque.X	femur_lat_tibia_r.tibia_upper_r.torque.Y	femur_lat_tibia_r.tibia_upper_r.torque.Z	femur_lat_tibia_r.femur_lat_r.force.X	femur_lat_tibia_r.femur_lat_r.force.Y	femur_lat_tibia_r.femur_lat_r.force.Z	femur_lat_tibia_r.femur_lat_r.torque.X	femur_lat_tibia_r.femur_lat_r.torque.Y	femur_lat_tibia_r.femur_lat_r.torque.Z	aACL_R	pACL_R	aPCL_R	pPCL_R	aMCL_R	mMCL_R	pMCL_R	aLCL_R	mLCL_R	pLCL_R	aPCL_L	pPCL_L	aMCL_L	aLCL_L
      0.17994843	     10.73793829	      7.85335039	      8.44045938	      3.63510322	      4.24038547	      4.54285697	      0.00000000	    183.29274881	    140.79862224	    304.20158322	    135.24540832	      7.81057633	      5.64503697	      4.01331049	      3.42073085	      5.73824601	      5.09923007	      3.06705225	    105.77274104	      5.06967235	      7.71117054	      5.78922059	     26.64116541	     17.49626031	      4.99229219	      3.50669377	      6.04069239	     65.96756258	     30.25633321	     32.21408210	     43.29091016	      0.00000000	      0.00000000	      0.00000000	      0.00000000	      0.00000000	      0.00000000	     36.63242047	      4.85648490	      6.27169341	     25.60177739	     46.68060927	     12.37479894	     10.73793829	      7.85335039	      8.44045938	      3.63510322	      4.24038547	      4.54285697	      6.47767449	      5.79681758	     11.43388706	      9.93585510	      2.07467108	      7.81057633	      5.64503697	      4.01331049	      3.42073085	      5.73824601	      5.18066967	      3.06705225	      2.13953642	      5.06967235	      7.71117054	      5.78922059	     26.64116541	     17.49626031	      4.99229219	      3.50669377	      6.04069239	     15.85931712	      0.00000000	      0.00000000	      0.00000000	     20.67253232	      9.71876582	     47.83092064	     49.48831295	      5.06128386	      4.50470928	     12.38084965	      6.59720493	     17.25664876	      2.70571746	      8.33382443	      2.63706505	     34.21159884	     34.21159884	     12.65144906	     12.65144906	     30.09311327	     30.09311327	     97.37795379	    218.59540169	     15.56257143	    -11.35828561	      2.29619770	     37.54595060	    -97.37795379	   -218.59540169	    -15.56257143	      5.68656427	     -2.82290470	      5.34132854	    115.64780276	     49.61366579	     -6.04854586	      3.48138123	     -2.55525156	     46.22078030	   -115.64780276	    -49.61366579	      6.04854586	     -1.04268733	      2.49269017	     -0.10627648	   -572.42964341	   -685.18180178	    165.55693222	    -14.76437260	     14.74721009	      9.02577992	    572.42964341	    685.18180178	   -165.55693222	     80.34321639	    -11.94454906	    229.31885461	      0.00000000	      0.00000000	      0.00000000	      0.00000000	      0.00000000	      0.00000000	      0.00000000	      0.00000000	      0.00000000	      0.00000000	      0.00000000	      0.00000000	      5.08571222	      0.00000000	    543.69752752	    304.30402206	      0.00000000	      0.00000000	      0.00000000	      0.00000000	      0.00000000	      0.00000000	      0.00000000	      0.00000000	      0.00000001	      0.00000000
      0.18017369	     10.72863742	      7.84688078	      8.43342152	      3.63223283	      4.23724991	      4.53884879	      0.00000000	    183.35932288	    140.83222246	    304.28849570	    135.25461604	      7.80406700	      5.64062099	      4.01100413	      3.41786077	      5.73304233	      5.09377595	      3.06461331	    105.78008998	      5.06548233	      7.70478203	      5.78434693	     26.62927589	     17.48271021	      4.98826375	      3.50473660	      6.03732928	     66.20483736	     30.24727427	     32.20418131	     43.27587237	      0.00000000	      0.00000000	      0.00000000	      0.00000000	      0.00000000	      0.00000000	     36.63240168	      4.86501295	      6.29465916	     25.59550283	     46.78543345	     12.39660018	     10.72863742	      7.84688078	      8.43342152	      3.63223283	      4.23724991	      4.53884879	      6.57637370	      5.79172567	     11.42339651	      9.92782898	      2.07304052	      7.80406700	      5.64062099	      4.01100413	      3.41786077	      5.73304233	      5.17745586	      3.06461331	      2.13782520	      5.06548233	      7.70478203	      5.78434693	     26.62927589	     17.48271021	      4.98826375	      3.50473660	      6.03732928	     15.84415121	      0.00000000	      0.00000000	      0.00000000	     20.66370428	      9.71399528	     47.78942338	     49.46841955	      5.05504291	      4.49851815	     12.36946519	      6.59077992	     17.24406226	      2.70362896	      8.32878921	      2.63582782	     34.18452313	     34.18452313	     12.64061112	     12.64061112	     30.08331131	     30.08331131	     97.14931279	    218.18379407	     15.51506321	    -11.32906971	      2.28852872	     37.44641632	    -97.14931279	   -218.18379407	    -15.51506321	      5.67557802	     -2.81470829	      5.35306685	    116.64811954	     49.72089728	     -6.03200153	      3.47715817	     -2.57858250	     46.62445280	   -116.64811954	    -49.72089728	      6.03200153	     -1.04425890	      2.51354376	     -0.11263767	   -575.18376362	   -685.01997216	    165.69818487	    -14.74954620	     14.80169143	      9.03177987	    575.18376362	    685.01997216	   -165.69818487	     80.39226448	    -11.99794018	    230.42317487	      0.00000000	      0.00000000	      0.00000000	      0.00000000	      0.00000000	      0.00000000	      0.00000000	      0.00000000	      0.00000000	      0.00000000	      0.00000000	      0.00000000	      5.12497115	      0.00000000	    546.13331837	    305.48721251	      0.00000000	      0.00000000	      0.00000000	      0.00000000	      0.00000000	      0.00000000	      0.00000000	      0.00000000	      0.00000001	      0.00000000
      0.18041091	     10.71886971	      7.84008899	      8.42603325	      3.62921941	      4.23395820	      4.53464100	      0.00000000	    183.42989455	    140.87324379	    304.39336204	    135.26441430	      7.79723359	      5.63598495	      4.00854244	      3.41484781	      5.72757956	      5.08801435	      3.06205287	    105.78797941	      5.06108373	      7.69807547	      5.77923067	     26.61679478	     17.46848608	      4.98403466	      3.50268212	      6.03377880	     66.45573005	     30.23734273	     32.19350664	     43.25999933	      0.00000000	      0.00000000	      0.00000000	      0.00000000	      0.00000000	      0.00000000	     36.63161316	      4.87439620	      6.31925799	     25.66673241	     46.89504952	     12.41929609	     10.71886971	      7.84008899	      8.42603325	      3.62921941	      4.23395820	      4.53464100	      6.67754002	      5.78638029	     11.41237646	      9.91940310	      2.07132870	      7.79723359	      5.63598495	      4.00854244	      3.41484781	      5.72757956	      5.17408195	      3.06205287	      2.13602874	      5.06108373	      7.69807547	      5.77923067	     26.61679478	     17.46848608	      4.98403466	      3.50268212	      6.03377880	     15.82822842	      0.00000000	      0.00000000	      0.00000000	     20.65436927	      9.70895667	     47.74579081	     49.44752543	      5.04845489	      4.49197745	     12.35751025	      6.58403287	     17.23083753	      2.70143656	      8.32353888	      2.63454144	     34.15609838	     34.15609838	     12.62923365	     12.62923365	     30.07302172	     30.07302172	     98.50168304	    217.84454760	     15.67618908	    -11.39187033	      2.32528247	     38.00624090	    -98.50168304	   -217.84454760	    -15.67618908	      5.67561059	     -2.85855251	      5.32260483	    117.59082743	     49.89220937	     -6.27134495	      3.57705488	     -2.59854957	     46.99923441	   -117.59082743	    -49.89220937	      6.27134495	     -1.05027702	      2.53698978	     -0.11064049	   -578.10981292	   -684.47214389	    165.71603710	    -14.72691185	     14.85308684	      9.02549907	    578.10981292	    684.47214389	   -165.71603710	     80.38536953	    -12.05129358	    231.60026547	      0.00000000	      0.00000000	      0.00000000	      0.00000000	      0.00000000	      0.00000000	      0.00000000	      0.00000000	      0.00000000	      0.00000000	      0.00000000	      0.00000000	      5.15799220	      0.00000000	    548.69444750	    306.74387122	      0.00000000	      0.00000000	      0.00000000	      0.00000000	      0.00000000	      0.00000000	      0.00000000	      0.00000000	      0.00000001	      0.00000000
      0.18063923	     10.70949380	      7.83357206	      8.41894402	      3.62632786	      4.23079968	      4.53060349	      0.00000000	    183.49735823	    140.91744792	    304.50299883	    135.27323515	      7.79067675	      5.63153635	      4.00614274	      3.41195682	      5.72233791	      5.08247018	      3.05959599	    105.79503404	      5.05686318	      7.69164040	      5.77432154	     26.60481921	     17.45483827	      4.97997666	      3.50071091	      6.03035288	     66.69830502	     30.22753092	     32.18300324	     43.24447066	      0.00000000	      0.00000000	      0.00000000	      0.00000000	      0.00000000	      0.00000000	     36.63014013	      4.88382250	      6.34334153	     25.67359384	     46.99984560	     12.44089591	     10.70949380	      7.83357206	      8.41894402	      3.62632786	      4.23079968	      4.53060349	      6.77233432	      5.78125131	     11.40179557	      9.91131811	      2.06968610	      7.79067675	      5.63153635	      4.00614274	      3.41195682	      5.72233791	      5.17084453	      3.05959599	      2.13430494	      5.05686318	      7.69164040	      5.77432154	     26.60481921	     17.45483827	      4.97997666	      3.50071091	      6.03035288	     15.81294840	      0.00000000	      0.00000000	      0.00000000	     20.64534705	      9.70409255	     47.70385785	     49.42746716	      5.04209843	      4.48566160	     12.34603567	      6.57755685	     17.21813697	      2.69933296	      8.31853497	      2.63331892	     34.12882319	     34.12882319	     12.61831677	     12.61831677	     30.06314901	     30.06314901	     98.17455764	    217.24242484	     15.73056089	    -11.40073330	      2.31648912	     37.86875221	    -98.17455764	   -217.24242484	    -15.73056089	      5.66274528	     -2.85142826	      5.32970189	    118.39235159	     49.77523624	     -6.47532919	      3.65768938	     -2.61681898	     47.32106785	   -118.39235159	    -49.77523624	      6.47532919	     -1.05129055	      2.55818704	     -0.11740320	   -580.31148963	   -684.37755518	    165.81594251	    -14.71177839	     14.89596316	      9.04827147	    580.31148963	    684.37755518	   -165.81594251	     80.41836419	    -12.09312894	    232.47544998	      0.00000000	      0.00000000	      0.00000000	      0.00000000	      0.00000000	      0.00000000	      0.00000000	      0.00000000	      0.00000000	      0.00000000	      0.00000000	      0.00000000	      5.19049549	      0.00000000	    551.16894677	    307.99342263	      0.00000000	      0.00000000	      0.00000000	      0.00000000	      0.00000000	      0.00000000	      0.00000000	      0.00000000	      0.00000001	      0.00000000
